# xmcd
#
# Track frame offsets:
#	150
#	20618
#	79097
#	87595
#	109783
#	132129
#	150229
#	162631
#	179074
#	197857
#	216289
#	231025
#	263575
#	310270
#	323110
#	342113
#
# Disc length: 4765 seconds
#
# Revision: 1
# Processed by: cddbd v1.5.2PL0 Copyright (c) Steve Scherf et al.
# Submitted via: audiograbber 1.83.01
#
DISCID=dc129b10
DTITLE=Various Artist - Blue Rose Christmas Party 2007 CD2
DYEAR=2008
DGENRE=
TTITLE0=Sand Rubies - What Am I Supposed To Do
TTITLE1=Sand Rubies - Goodbye
TTITLE2=The Blue Rose Rockestra Part 1 - Do Wah Diddy Diddy
TTITLE3=The Blue Rose Rockestra Part 1 - The Boxer
TTITLE4=The Blue Rose Rockestra Part 1 - Crazy Mama
TTITLE5=The Blue Rose Rockestra Part 1 - Stagger Lee
TTITLE6=The Blue Rose Rockestra Part 1 - That's All Right
TTITLE7=The Blue Rose Rockestra Part 1 - Folsom Prison Blues
TTITLE8=The Blue Rose Rockestra Part 1 - Powderfinger
TTITLE9=The Blue Rose Rockestra Part 1 - Get It On
TTITLE10=The Blue Rose Rockestra Part 1 - Twistin' The Night Away
TTITLE11=The Blue Rose Rockestra Part 1 - Tupelo Honey
TTITLE12=The Blue Rose Rockestra Part 1 - Like A Hurricane
TTITLE13=The Blue Rose Rockestra Part 1 - Santa Claus Is Coming To Town
TTITLE14=The Blue Rose Rockestra Part 1 - Lodi - Amazing Graze
TTITLE15=The Blue Rose Rockestra Part 1 - Memories Are Made Of This
EXTD=
EXTT0=
EXTT1=
EXTT2=
EXTT3=
EXTT4=
EXTT5=
EXTT6=
EXTT7=
EXTT8=
EXTT9=
EXTT10=
EXTT11=
EXTT12=
EXTT13=
EXTT14=
EXTT15=
PLAYORDER=
